General
Complete name                            : Cinderella Man [2005] 720p BRRip H264 AC3 - CODY.mp4
Format                                   : MPEG-4
Format profile                           : Base Media
Codec ID                                 : isom
File size                                : 2.17 GiB
Duration                                 : 2h 24mn
Overall bit rate mode                    : Variable
Overall bit rate                         : 2 150 Kbps
Encoded date                             : UTC 2012-02-29 22:01:27
Tagged date                              : UTC 2012-02-29 22:01:27

Video
ID                                       : 1
Format                                   : AVC
Format/Info                              : Advanced Video Codec
Format profile                           : High@L4.1
Format settings, CABAC                   : Yes
Format settings, ReFrames                : 4 frames
Codec ID                                 : avc1
Codec ID/Info                            : Advanced Video Coding
Duration                                 : 2h 24mn
Bit rate mode                            : Variable
Bit rate                                 : 1 700 Kbps
Maximum bit rate                         : 20.0 Mbps
Width                                    : 1 280 pixels
Height                                   : 544 pixels
Display aspect ratio                     : 2.35:1
Frame rate mode                          : Constant
Frame rate                               : 23.976 fps
Color space                              : YUV
Chroma subsampling                       : 4:2:0
Bit depth                                : 8 bits
Scan type                                : Progressive
Bits/(Pixel*Frame)                       : 0.102
Stream size                              : 1.71 GiB (79%)
Writing library                          : x264 core 119 r2106 07efeb4
Encoding settings                        : rc=2pass
Encoded date                             : UTC 2012-02-29 22:01:27
Tagged date                              : UTC 2012-02-29 22:02:00

Audio
ID                                       : 2
Format                                   : AC-3
Format/Info                              : Audio Coding 3
Mode extension                           : CM (complete main)
Codec ID                                 : ac-3
Duration                                 : 2h 24mn
Bit rate mode                            : Constant
Bit rate                                 : 448 Kbps
Channel(s)                               : 6 channels
Channel positions                        : Front: L C R, Side: L R, LFE
Sampling rate                            : 48.0 KHz
Bit depth                                : 16 bits
Compression mode                         : Lossy
Stream size                              : 463 MiB (21%)
Encoded date                             : UTC 2012-02-29 22:01:56
Tagged date                              : UTC 2012-02-29 22:02:00




IMDB link:                                 http://www.imdb.com/title/tt0352248/




Subtitles included: Arabic, Dutch, English, Polish, Portuguese, Romanian, Swedish




Please seed at least 1,5:1 . This way this torrent has a chance to survive !




Thanks . Enjoy !!
